G04                                                                  *
G04 SOURCE        : LAYO1 PCB.EXE VERSION 10                         *
G04 FORMAT        : GERBER RS-274X, Inch, 2.4, Leading Zero          *
G04 TITLE         : CNC3018SWITCHERV4011_SILKSCREEN TOP              *
G04 TIME          : Thursday, May 18, 2023  21:32:57                 *
G04                                                                  *
G04 Board width   : 125.000 mm. =  4.9213 inch                       *
G04 Board height  :  94.000 mm. =  3.7008 inch                       *
G04 Board offset  :   0.000 mm. =  0.0000 inch                       *
G04 Board offset  :   0.000 mm. =  0.0000 inch                       *
G04                                                                  *
G04 Apertures:                                                       *
G04       Type          X       Y             X       Y        Used  *
G04                      Inches                Metric                *
G04 D10   Draw        0.0118  0.0118        0.300   0.300        18  *
G04 D11   Draw        0.0079  0.0079        0.200   0.200      2527  *
G04 D12   Draw        0.0157  0.0157        0.400   0.400        16  *
G04                                                                  *
%FSLAX24Y24*
MOIN*
SFA1.0B1.0*%
%ADD10C,0.0118*%
%ADD11C,0.0079*%
%ADD12C,0.0157*%
%LNSILKSCREEN TOP*%
G54D10*
X020500Y028008D02*
X023500Y028008D01*
X018500Y019508D02*
X021500Y019508D01*
X027750Y014508D02*
X027750Y011508D01*
X005941Y018581D02*
X005587Y018581D01*
X005764Y018758D02*
X005764Y018404D01*
X005764Y016758D02*
X005764Y016404D01*
X005764Y011758D02*
X005764Y011404D01*
X005941Y013581D02*
X005587Y013581D01*
X005764Y013758D02*
X005764Y013404D01*
G54D11*
X014374Y029571D02*
X013626Y029571D01*
X013626Y029697D01*
X014374Y029697D01*
X014374Y029571D01*
X014374Y029445D02*
X013626Y029445D01*
X013626Y029319D01*
X014374Y029319D01*
X014374Y029445D01*
X014000Y029697D02*
X014000Y030008D01*
X014000Y029319D02*
X014000Y029008D01*
X012000Y029508D02*
X012000Y029508D01*
X012016Y029228D01*
X012079Y028953D01*
X012173Y028697D01*
X012303Y028445D01*
X012469Y028220D01*
X012665Y028024D01*
X012882Y027850D01*
X013126Y027713D01*
X013382Y027602D01*
X013657Y027539D01*
X013929Y027508D01*
X014213Y027516D01*
X014484Y027571D01*
X014752Y027657D01*
X015000Y027772D01*
X015236Y027929D01*
X015437Y028118D01*
X015618Y028335D01*
X015764Y028571D01*
X015882Y028827D01*
X015953Y029094D01*
X015992Y029366D01*
X015992Y029650D01*
X015953Y029929D01*
X015874Y030197D01*
X015764Y030453D01*
X015618Y030689D01*
X015437Y030898D01*
X015228Y031087D01*
X015000Y031244D01*
X014744Y031366D01*
X014476Y031453D01*
X014205Y031500D01*
X013929Y031508D01*
X013650Y031476D01*
X013374Y031406D01*
X013118Y031303D01*
X012874Y031165D01*
X012657Y030992D01*
X012469Y030787D01*
X012303Y030563D01*
X012173Y030319D01*
X012079Y030055D01*
X012016Y029780D01*
X012000Y029500D01*
X014689Y030760D02*
X014311Y030760D01*
X014500Y030945D02*
X014500Y030571D01*
X019000Y030634D02*
X019000Y030382D01*
X019500Y030382D01*
X019500Y030134D01*
X018500Y030134D01*
X018500Y030382D01*
X019000Y030382D01*
X019500Y029882D02*
X019500Y029634D01*
X018500Y029634D01*
X018500Y029882D01*
X019500Y029882D01*
X019000Y029382D02*
X019000Y029634D01*
X035374Y012508D02*
X035374Y013508D01*
X035626Y012508D02*
X035626Y013508D01*
X035626Y013008D02*
X035752Y013008D01*
X035374Y013008D02*
X035252Y013008D01*
X014374Y010008D02*
X014626Y010008D01*
X014500Y009882D02*
X014500Y010134D01*
X015000Y010508D02*
X015000Y010508D01*
X014969Y010764D01*
X014866Y011008D01*
X014705Y011220D01*
X014500Y011374D01*
X014256Y011476D01*
X014000Y011508D01*
X013744Y011476D01*
X013500Y011374D01*
X013287Y011213D01*
X013134Y011008D01*
X013031Y010764D01*
X013000Y010508D01*
X013031Y010252D01*
X013134Y010008D01*
X013295Y009795D01*
X013500Y009642D01*
X013744Y009539D01*
X014000Y009508D01*
X014256Y009539D01*
X014500Y009642D01*
X014713Y009803D01*
X014866Y010008D01*
X014969Y010252D01*
X015000Y010508D01*
X013626Y010445D02*
X014374Y010445D01*
X014374Y010319D01*
X013626Y010319D01*
X013626Y010445D01*
X013626Y010571D02*
X014374Y010571D01*
X014374Y010697D01*
X013626Y010697D01*
X013626Y010571D01*
X014000Y010697D02*
X014000Y011008D01*
X014000Y010319D02*
X014000Y010008D01*
X023000Y025008D02*
X023000Y024571D01*
X023252Y024571D01*
X023252Y023445D01*
X022748Y023445D01*
X022748Y024571D01*
X023000Y024571D01*
X023000Y023445D02*
X023000Y023008D01*
X022748Y024382D02*
X023252Y024382D01*
X023252Y024256D02*
X022748Y024256D01*
X040000Y022008D02*
X040256Y022039D01*
X040500Y022142D01*
X040713Y022303D01*
X040713Y023697D01*
X040500Y023874D01*
X040256Y023976D01*
X040000Y024008D01*
X039744Y023976D01*
X039500Y023874D01*
X039287Y023713D01*
X039134Y023508D01*
X039031Y023264D01*
X039000Y023008D01*
X039031Y022752D01*
X039134Y022508D01*
X039295Y022295D01*
X039500Y022142D01*
X039744Y022039D01*
X040000Y022008D01*
X035500Y022008D02*
X035756Y022039D01*
X036000Y022142D01*
X036213Y022303D01*
X036213Y023697D01*
X036000Y023874D01*
X035756Y023976D01*
X035500Y024008D01*
X035244Y023976D01*
X035000Y023874D01*
X034787Y023713D01*
X034634Y023508D01*
X034531Y023264D01*
X034500Y023008D01*
X034531Y022752D01*
X034634Y022508D01*
X034795Y022295D01*
X035000Y022142D01*
X035244Y022039D01*
X035500Y022008D01*
X023000Y016008D02*
X023000Y015571D01*
X023252Y015571D01*
X023252Y014445D01*
X022748Y014445D01*
X022748Y015571D01*
X023000Y015571D01*
X023000Y014445D02*
X023000Y014008D01*
X022748Y015382D02*
X023252Y015382D01*
X023252Y015256D02*
X022748Y015256D01*
X040000Y027008D02*
X040256Y027039D01*
X040500Y027142D01*
X040713Y027303D01*
X040713Y028697D01*
X040500Y028874D01*
X040256Y028976D01*
X040000Y029008D01*
X039744Y028976D01*
X039500Y028874D01*
X039287Y028713D01*
X039134Y028508D01*
X039031Y028264D01*
X039000Y028008D01*
X039031Y027752D01*
X039134Y027508D01*
X039295Y027295D01*
X039500Y027142D01*
X039744Y027039D01*
X040000Y027008D01*
X012000Y010008D02*
X011563Y010008D01*
X011563Y009756D01*
X010437Y009756D01*
X010437Y010260D01*
X011563Y010260D01*
X011563Y010008D01*
X010437Y010008D02*
X010000Y010008D01*
X011374Y010260D02*
X011374Y009756D01*
X011248Y009756D02*
X011248Y010260D01*
X009000Y028008D02*
X006750Y028008D01*
X009000Y028883D02*
X009000Y028008D01*
X009000Y029133D02*
X009000Y030883D01*
X009000Y031133D02*
X009000Y032008D01*
X006750Y032008D01*
X006750Y028008D01*
X009000Y022008D02*
X006750Y022008D01*
X009000Y022883D02*
X009000Y022008D01*
X009000Y023133D02*
X009000Y024883D01*
X009000Y025133D02*
X009000Y026008D01*
X006750Y026008D01*
X006750Y022008D01*
X006626Y015524D02*
X006626Y019461D01*
X009579Y019461D01*
X009579Y015524D01*
X006626Y015524D01*
X006843Y015524D02*
X006843Y019461D01*
X006626Y010524D02*
X006626Y014461D01*
X009579Y014461D01*
X009579Y010524D01*
X006626Y010524D01*
X006843Y010524D02*
X006843Y014461D01*
X026500Y013508D02*
X026500Y010508D01*
X025500Y010508D01*
X025500Y013508D01*
X026500Y013508D01*
X026500Y012508D02*
X025500Y012508D01*
X022126Y026508D02*
X022126Y021390D01*
X010713Y021390D01*
X010713Y026508D01*
X022126Y026508D01*
X022126Y017508D02*
X022126Y012390D01*
X010713Y012390D01*
X010713Y017508D01*
X022126Y017508D01*
X026063Y024508D02*
X026055Y024374D01*
X026024Y024236D01*
X025976Y024102D01*
X025921Y023969D01*
X025843Y023866D01*
X025752Y023760D01*
X025642Y023665D01*
X025539Y023587D01*
X025406Y023531D01*
X025272Y023484D01*
X025134Y023453D01*
X025000Y023445D01*
X024858Y023453D01*
X024720Y023484D01*
X024594Y023531D01*
X024469Y023587D01*
X024358Y023665D01*
X024248Y023760D01*
X024157Y023866D01*
X024087Y023969D01*
X024016Y024102D01*
X023969Y024236D01*
X023945Y024374D01*
X023937Y024508D01*
X023945Y024650D01*
X023969Y024787D01*
X024016Y024913D01*
X024079Y025039D01*
X024157Y025150D01*
X024248Y025260D01*
X024358Y025350D01*
X024469Y025421D01*
X024594Y025492D01*
X024720Y025539D01*
X024858Y025563D01*
X025000Y025563D01*
X025134Y025563D01*
X025272Y025539D01*
X025406Y025492D01*
X025539Y025421D01*
X025626Y025374D01*
X025780Y025524D01*
X026024Y025280D01*
X025866Y025126D01*
X025921Y025039D01*
X025984Y024913D01*
X026024Y024787D01*
X026055Y024650D01*
X026063Y024508D01*
X026063Y015008D02*
X026055Y014874D01*
X026024Y014736D01*
X025976Y014602D01*
X025921Y014469D01*
X025843Y014366D01*
X025752Y014260D01*
X025642Y014165D01*
X025539Y014087D01*
X025406Y014031D01*
X025272Y013984D01*
X025134Y013953D01*
X025000Y013945D01*
X024858Y013953D01*
X024720Y013984D01*
X024594Y014031D01*
X024469Y014087D01*
X024358Y014165D01*
X024248Y014260D01*
X024157Y014366D01*
X024087Y014469D01*
X024016Y014602D01*
X023969Y014736D01*
X023945Y014874D01*
X023937Y015008D01*
X023945Y015150D01*
X023969Y015287D01*
X024016Y015413D01*
X024079Y015539D01*
X024157Y015650D01*
X024248Y015760D01*
X024358Y015850D01*
X024469Y015921D01*
X024594Y015992D01*
X024720Y016039D01*
X024858Y016063D01*
X025000Y016063D01*
X025134Y016063D01*
X025272Y016039D01*
X025406Y015992D01*
X025539Y015921D01*
X025626Y015874D01*
X025780Y016024D01*
X026024Y015780D01*
X025866Y015626D01*
X025921Y015539D01*
X025984Y015413D01*
X026024Y015287D01*
X026055Y015150D01*
X026063Y015008D01*
X022563Y009252D02*
X022484Y009181D01*
X022366Y009134D01*
X022244Y009087D01*
X022118Y009063D01*
X022000Y009055D01*
X021874Y009063D01*
X021744Y009087D01*
X021524Y009181D01*
X021421Y009252D01*
X021319Y009335D01*
X021244Y009429D01*
X021181Y009524D01*
X021110Y009642D01*
X021071Y009764D01*
X021047Y009890D01*
X021039Y010008D01*
X021047Y010134D01*
X021071Y010264D01*
X021110Y010374D01*
X021173Y010484D01*
X021244Y010587D01*
X021319Y010689D01*
X021421Y010764D01*
X021524Y010827D01*
X021634Y010898D01*
X021744Y010937D01*
X021874Y010961D01*
X022118Y010961D01*
X022244Y010937D01*
X022366Y010898D01*
X022484Y010827D01*
X022563Y010787D01*
X022563Y009260D01*
X019563Y009252D02*
X019484Y009181D01*
X019366Y009134D01*
X019244Y009087D01*
X019118Y009063D01*
X019000Y009055D01*
X018874Y009063D01*
X018744Y009087D01*
X018524Y009181D01*
X018421Y009252D01*
X018319Y009335D01*
X018244Y009429D01*
X018181Y009524D01*
X018110Y009642D01*
X018071Y009764D01*
X018047Y009890D01*
X018039Y010008D01*
X018047Y010134D01*
X018071Y010264D01*
X018110Y010374D01*
X018173Y010484D01*
X018244Y010587D01*
X018319Y010689D01*
X018421Y010764D01*
X018524Y010827D01*
X018634Y010898D01*
X018744Y010937D01*
X018874Y010961D01*
X019118Y010961D01*
X019244Y010937D01*
X019366Y010898D01*
X019484Y010827D01*
X019563Y010787D01*
X019563Y009260D01*
X039500Y012634D02*
X039500Y012008D01*
X039126Y012008D01*
X039126Y010008D01*
X039874Y010008D01*
X039874Y012008D01*
X039500Y012008D01*
X039500Y010008D02*
X039500Y009382D01*
X022874Y029008D02*
X023500Y029008D01*
X023500Y028634D01*
X025500Y028634D01*
X025500Y029382D01*
X023500Y029382D01*
X023500Y029008D01*
X025500Y029008D02*
X026126Y029008D01*
X037126Y025508D02*
X036500Y025508D01*
X036500Y025882D01*
X034500Y025882D01*
X034500Y025134D01*
X036500Y025134D01*
X036500Y025508D01*
X034500Y025508D02*
X033874Y025508D01*
X034000Y012634D02*
X034000Y012008D01*
X033626Y012008D01*
X033626Y010008D01*
X034374Y010008D01*
X034374Y012008D01*
X034000Y012008D01*
X034000Y010008D02*
X034000Y009382D01*
X028374Y024008D02*
X029000Y024008D01*
X029000Y023634D01*
X031000Y023634D01*
X031000Y024382D01*
X029000Y024382D01*
X029000Y024008D01*
X031000Y024008D02*
X031626Y024008D01*
X037126Y020008D02*
X036500Y020008D01*
X036500Y020382D01*
X034500Y020382D01*
X034500Y019634D01*
X036500Y019634D01*
X036500Y020008D01*
X034500Y020008D02*
X033874Y020008D01*
X024374Y017508D02*
X025000Y017508D01*
X025000Y017134D01*
X027000Y017134D01*
X027000Y017882D01*
X025000Y017882D01*
X025000Y017508D01*
X027000Y017508D02*
X027626Y017508D01*
X024500Y012134D02*
X024500Y011508D01*
X024126Y011508D01*
X024126Y009508D01*
X024874Y009508D01*
X024874Y011508D01*
X024500Y011508D01*
X024500Y009508D02*
X024500Y008882D01*
X034374Y031008D02*
X035000Y031008D01*
X035000Y030634D01*
X037000Y030634D01*
X037000Y031382D01*
X035000Y031382D01*
X035000Y031008D01*
X037000Y031008D02*
X037626Y031008D01*
X007374Y008008D02*
X008000Y008008D01*
X008000Y007634D01*
X010000Y007634D01*
X010000Y008382D01*
X008000Y008382D01*
X008000Y008008D01*
X010000Y008008D02*
X010626Y008008D01*
X016500Y007382D02*
X016500Y008008D01*
X016874Y008008D01*
X016874Y010008D01*
X016126Y010008D01*
X016126Y008008D01*
X016500Y008008D01*
X016500Y010008D02*
X016500Y010634D01*
X041125Y015508D02*
X039125Y015508D01*
X039125Y017508D01*
X041125Y017508D01*
X041125Y015508D01*
X040125Y017008D02*
X040125Y017008D01*
X040108Y017008D01*
X040090Y017007D01*
X040073Y017005D01*
X040055Y017003D01*
X040038Y017000D01*
X040021Y016997D01*
X040004Y016993D01*
X039987Y016989D01*
X039970Y016983D01*
X039954Y016978D01*
X039938Y016971D01*
X039922Y016965D01*
X039906Y016957D01*
X039890Y016949D01*
X039875Y016941D01*
X039860Y016932D01*
X039845Y016922D01*
X039831Y016912D01*
X039817Y016902D01*
X039804Y016891D01*
X039790Y016879D01*
X039778Y016868D01*
X039765Y016855D01*
X039753Y016842D01*
X039742Y016829D01*
X039731Y016816D01*
X039720Y016802D01*
X039710Y016787D01*
X039701Y016773D01*
X039692Y016758D01*
X039684Y016743D01*
X039676Y016727D01*
X039668Y016711D01*
X039661Y016695D01*
X039655Y016679D01*
X039649Y016662D01*
X039644Y016646D01*
X039640Y016629D01*
X039636Y016612D01*
X039633Y016595D01*
X039630Y016577D01*
X039628Y016560D01*
X039626Y016543D01*
X039625Y016525D01*
X039625Y016508D01*
X039625Y016490D01*
X039626Y016473D01*
X039628Y016456D01*
X039630Y016438D01*
X039633Y016421D01*
X039636Y016404D01*
X039640Y016387D01*
X039644Y016370D01*
X039649Y016353D01*
X039655Y016337D01*
X039661Y016321D01*
X039668Y016305D01*
X039676Y016289D01*
X039684Y016273D01*
X039692Y016258D01*
X039701Y016243D01*
X039710Y016228D01*
X039720Y016214D01*
X039731Y016200D01*
X039742Y016186D01*
X039753Y016173D01*
X039765Y016161D01*
X039778Y016148D01*
X039790Y016136D01*
X039804Y016125D01*
X039817Y016114D01*
X039831Y016103D01*
X039845Y016093D01*
X039860Y016084D01*
X039875Y016075D01*
X039890Y016066D01*
X039906Y016058D01*
X039922Y016051D01*
X039938Y016044D01*
X039954Y016038D01*
X039970Y016032D01*
X039987Y016027D01*
X040004Y016023D01*
X040021Y016019D01*
X040038Y016015D01*
X040055Y016013D01*
X040073Y016011D01*
X040090Y016009D01*
X040108Y016008D01*
X040125Y016008D01*
X040142Y016008D01*
X040160Y016009D01*
X040177Y016011D01*
X040195Y016013D01*
X040212Y016015D01*
X040229Y016019D01*
X040246Y016023D01*
X040263Y016027D01*
X040280Y016032D01*
X040296Y016038D01*
X040312Y016044D01*
X040328Y016051D01*
X040344Y016058D01*
X040360Y016066D01*
X040375Y016075D01*
X040390Y016084D01*
X040405Y016093D01*
X040419Y016103D01*
X040433Y016114D01*
X040446Y016125D01*
X040460Y016136D01*
X040472Y016148D01*
X040485Y016161D01*
X040497Y016173D01*
X040508Y016186D01*
X040519Y016200D01*
X040530Y016214D01*
X040540Y016228D01*
X040549Y016243D01*
X040558Y016258D01*
X040566Y016273D01*
X040574Y016289D01*
X040582Y016305D01*
X040589Y016321D01*
X040595Y016337D01*
X040601Y016353D01*
X040606Y016370D01*
X040610Y016387D01*
X040614Y016404D01*
X040617Y016421D01*
X040620Y016438D01*
X040622Y016456D01*
X040624Y016473D01*
X040625Y016490D01*
X040625Y016508D01*
X040625Y016525D01*
X040624Y016543D01*
X040622Y016560D01*
X040620Y016577D01*
X040617Y016595D01*
X040614Y016612D01*
X040610Y016629D01*
X040606Y016646D01*
X040601Y016662D01*
X040595Y016679D01*
X040589Y016695D01*
X040582Y016711D01*
X040574Y016727D01*
X040566Y016743D01*
X040558Y016758D01*
X040549Y016773D01*
X040540Y016787D01*
X040530Y016802D01*
X040519Y016816D01*
X040508Y016829D01*
X040497Y016842D01*
X040485Y016855D01*
X040472Y016868D01*
X040460Y016879D01*
X040446Y016891D01*
X040433Y016902D01*
X040419Y016912D01*
X040405Y016922D01*
X040390Y016932D01*
X040375Y016941D01*
X040360Y016949D01*
X040344Y016957D01*
X040328Y016965D01*
X040312Y016971D01*
X040296Y016978D01*
X040280Y016983D01*
X040263Y016989D01*
X040246Y016993D01*
X040229Y016997D01*
X040212Y017000D01*
X040195Y017003D01*
X040177Y017005D01*
X040160Y017007D01*
X040142Y017008D01*
X040125Y017008D01*
X036625Y015508D02*
X034625Y015508D01*
X034625Y017508D01*
X036625Y017508D01*
X036625Y015508D01*
X035625Y017008D02*
X035625Y017008D01*
X035608Y017008D01*
X035590Y017007D01*
X035573Y017005D01*
X035555Y017003D01*
X035538Y017000D01*
X035521Y016997D01*
X035504Y016993D01*
X035487Y016989D01*
X035470Y016983D01*
X035454Y016978D01*
X035438Y016971D01*
X035422Y016965D01*
X035406Y016957D01*
X035390Y016949D01*
X035375Y016941D01*
X035360Y016932D01*
X035345Y016922D01*
X035331Y016912D01*
X035317Y016902D01*
X035304Y016891D01*
X035290Y016879D01*
X035278Y016868D01*
X035265Y016855D01*
X035253Y016842D01*
X035242Y016829D01*
X035231Y016816D01*
X035220Y016802D01*
X035210Y016787D01*
X035201Y016773D01*
X035192Y016758D01*
X035184Y016743D01*
X035176Y016727D01*
X035168Y016711D01*
X035161Y016695D01*
X035155Y016679D01*
X035149Y016662D01*
X035144Y016646D01*
X035140Y016629D01*
X035136Y016612D01*
X035133Y016595D01*
X035130Y016577D01*
X035128Y016560D01*
X035126Y016543D01*
X035125Y016525D01*
X035125Y016508D01*
X035125Y016490D01*
X035126Y016473D01*
X035128Y016456D01*
X035130Y016438D01*
X035133Y016421D01*
X035136Y016404D01*
X035140Y016387D01*
X035144Y016370D01*
X035149Y016353D01*
X035155Y016337D01*
X035161Y016321D01*
X035168Y016305D01*
X035176Y016289D01*
X035184Y016273D01*
X035192Y016258D01*
X035201Y016243D01*
X035210Y016228D01*
X035220Y016214D01*
X035231Y016200D01*
X035242Y016186D01*
X035253Y016173D01*
X035265Y016161D01*
X035278Y016148D01*
X035290Y016136D01*
X035304Y016125D01*
X035317Y016114D01*
X035331Y016103D01*
X035345Y016093D01*
X035360Y016084D01*
X035375Y016075D01*
X035390Y016066D01*
X035406Y016058D01*
X035422Y016051D01*
X035438Y016044D01*
X035454Y016038D01*
X035470Y016032D01*
X035487Y016027D01*
X035504Y016023D01*
X035521Y016019D01*
X035538Y016015D01*
X035555Y016013D01*
X035573Y016011D01*
X035590Y016009D01*
X035608Y016008D01*
X035625Y016008D01*
X035642Y016008D01*
X035660Y016009D01*
X035677Y016011D01*
X035695Y016013D01*
X035712Y016015D01*
X035729Y016019D01*
X035746Y016023D01*
X035763Y016027D01*
X035780Y016032D01*
X035796Y016038D01*
X035812Y016044D01*
X035828Y016051D01*
X035844Y016058D01*
X035860Y016066D01*
X035875Y016075D01*
X035890Y016084D01*
X035905Y016093D01*
X035919Y016103D01*
X035933Y016114D01*
X035946Y016125D01*
X035960Y016136D01*
X035972Y016148D01*
X035985Y016161D01*
X035997Y016173D01*
X036008Y016186D01*
X036019Y016200D01*
X036030Y016214D01*
X036040Y016228D01*
X036049Y016243D01*
X036058Y016258D01*
X036066Y016273D01*
X036074Y016289D01*
X036082Y016305D01*
X036089Y016321D01*
X036095Y016337D01*
X036101Y016353D01*
X036106Y016370D01*
X036110Y016387D01*
X036114Y016404D01*
X036117Y016421D01*
X036120Y016438D01*
X036122Y016456D01*
X036124Y016473D01*
X036125Y016490D01*
X036125Y016508D01*
X036125Y016525D01*
X036124Y016543D01*
X036122Y016560D01*
X036120Y016577D01*
X036117Y016595D01*
X036114Y016612D01*
X036110Y016629D01*
X036106Y016646D01*
X036101Y016662D01*
X036095Y016679D01*
X036089Y016695D01*
X036082Y016711D01*
X036074Y016727D01*
X036066Y016743D01*
X036058Y016758D01*
X036049Y016773D01*
X036040Y016787D01*
X036030Y016802D01*
X036019Y016816D01*
X036008Y016829D01*
X035997Y016842D01*
X035985Y016855D01*
X035972Y016868D01*
X035960Y016879D01*
X035946Y016891D01*
X035933Y016902D01*
X035919Y016912D01*
X035905Y016922D01*
X035890Y016932D01*
X035875Y016941D01*
X035860Y016949D01*
X035844Y016957D01*
X035828Y016965D01*
X035812Y016971D01*
X035796Y016978D01*
X035780Y016983D01*
X035763Y016989D01*
X035746Y016993D01*
X035729Y016997D01*
X035712Y017000D01*
X035695Y017003D01*
X035677Y017005D01*
X035660Y017007D01*
X035642Y017008D01*
X035625Y017008D01*
X029252Y014008D02*
X029252Y021008D01*
X031748Y021008D01*
X031748Y014008D01*
X030752Y014008D01*
X030752Y014382D01*
X030252Y014382D01*
X030252Y014008D01*
X029252Y014008D01*
X034750Y018785D02*
X034750Y019258D01*
X034927Y019081D01*
X035104Y019258D01*
X035104Y018785D01*
X035281Y018785D02*
X035222Y018844D01*
X035222Y019022D01*
X035281Y019081D01*
X035459Y019081D01*
X035518Y019022D01*
X035518Y018844D01*
X035459Y018785D01*
X035281Y018785D01*
X035636Y019258D02*
X035636Y018844D01*
X035695Y018785D01*
X035813Y018785D01*
X035872Y018844D01*
X035636Y019081D02*
X035754Y019081D01*
X036049Y018785D02*
X035990Y018844D01*
X035990Y019022D01*
X036049Y019081D01*
X036226Y019081D01*
X036285Y019022D01*
X036285Y018844D01*
X036226Y018785D01*
X036049Y018785D01*
X036404Y018785D02*
X036404Y019081D01*
X036404Y019022D02*
X036463Y019081D01*
X036522Y019081D01*
X036581Y019022D01*
X039250Y019258D02*
X039250Y018785D01*
X039604Y018785D01*
X039781Y019081D02*
X039959Y019081D01*
X040018Y019022D01*
X040018Y018785D01*
X040018Y018844D02*
X039959Y018785D01*
X039781Y018785D01*
X039722Y018844D01*
X039722Y018904D01*
X039781Y018963D01*
X039959Y018963D01*
X040018Y018904D01*
X040136Y018844D02*
X040195Y018785D01*
X040372Y018785D01*
X040431Y018844D01*
X040431Y018874D01*
X040372Y018933D01*
X040195Y018933D01*
X040136Y018992D01*
X040136Y019022D01*
X040195Y019081D01*
X040372Y019081D01*
X040431Y019022D01*
X040844Y018844D02*
X040785Y018785D01*
X040608Y018785D01*
X040549Y018844D01*
X040549Y019022D01*
X040608Y019081D01*
X040785Y019081D01*
X040844Y019022D01*
X040844Y018933D01*
X040549Y018933D01*
X040963Y018785D02*
X040963Y019081D01*
X040963Y019022D02*
X041022Y019081D01*
X041081Y019081D01*
X041140Y019022D01*
X028177Y029035D02*
X028177Y029508D01*
X028000Y029508D02*
X028354Y029508D01*
X028531Y029035D02*
X028472Y029094D01*
X028472Y029272D01*
X028531Y029331D01*
X028709Y029331D01*
X028768Y029272D01*
X028768Y029094D01*
X028709Y029035D01*
X028531Y029035D01*
X028945Y029035D02*
X028886Y029094D01*
X028886Y029272D01*
X028945Y029331D01*
X029122Y029331D01*
X029181Y029272D01*
X029181Y029094D01*
X029122Y029035D01*
X028945Y029035D01*
X029299Y029035D02*
X029417Y029035D01*
X029358Y029035D02*
X029358Y029508D01*
X029299Y029508D01*
X030067Y029094D02*
X030126Y029035D01*
X030303Y029035D01*
X030362Y029094D01*
X030362Y029124D01*
X030303Y029183D01*
X030126Y029183D01*
X030067Y029242D01*
X030067Y029272D01*
X030126Y029331D01*
X030303Y029331D01*
X030362Y029272D01*
X030480Y029331D02*
X030480Y029094D01*
X030539Y029035D01*
X030598Y029035D01*
X030657Y029094D01*
X030657Y029272D01*
X030657Y029094D02*
X030717Y029035D01*
X030776Y029035D01*
X030835Y029094D01*
X030835Y029331D01*
X030953Y029035D02*
X030953Y029272D01*
X030953Y029331D02*
X030953Y029360D01*
X031071Y029508D02*
X031071Y029094D01*
X031130Y029035D01*
X031248Y029035D01*
X031307Y029094D01*
X031071Y029331D02*
X031189Y029331D01*
X031720Y029094D02*
X031661Y029035D01*
X031484Y029035D01*
X031425Y029094D01*
X031425Y029272D01*
X031484Y029331D01*
X031661Y029331D01*
X031720Y029272D01*
X031839Y029508D02*
X031839Y029035D01*
X031839Y029272D02*
X031898Y029331D01*
X032075Y029331D01*
X032134Y029272D01*
X032134Y029035D01*
X032547Y029094D02*
X032488Y029035D01*
X032311Y029035D01*
X032252Y029094D01*
X032252Y029272D01*
X032311Y029331D01*
X032488Y029331D01*
X032547Y029272D01*
X032547Y029183D01*
X032252Y029183D01*
X032665Y029035D02*
X032665Y029331D01*
X032665Y029272D02*
X032724Y029331D01*
X032783Y029331D01*
X032843Y029272D01*
X028177Y028035D02*
X028177Y028508D01*
X028000Y028508D02*
X028354Y028508D01*
X028472Y028094D02*
X028531Y028035D01*
X028768Y028035D01*
X028827Y028094D01*
X028827Y028213D01*
X028768Y028272D01*
X028531Y028272D01*
X028472Y028331D01*
X028472Y028449D01*
X028531Y028508D01*
X028768Y028508D01*
X028827Y028449D01*
X028945Y028272D02*
X029299Y028272D01*
X029772Y028035D02*
X029417Y028035D01*
X029417Y028154D01*
X029535Y028272D01*
X029713Y028272D01*
X029772Y028331D01*
X029772Y028449D01*
X029713Y028508D01*
X029476Y028508D01*
X029417Y028449D01*
X030244Y028094D02*
X030185Y028035D01*
X029949Y028035D01*
X029890Y028094D01*
X029890Y028449D01*
X029949Y028508D01*
X030185Y028508D01*
X030244Y028449D01*
X030362Y028035D02*
X030362Y028508D01*
X030362Y028272D02*
X030717Y028272D01*
X030717Y028508D02*
X030717Y028035D01*
X030835Y028272D02*
X031189Y028272D01*
X031602Y028035D02*
X031602Y028508D01*
X031484Y028508D01*
X031307Y028331D01*
X031307Y028213D01*
X031661Y028213D01*
X031839Y028035D02*
X031780Y028094D01*
X031780Y028449D01*
X031839Y028508D01*
X032075Y028508D01*
X032134Y028449D01*
X032134Y028094D01*
X032075Y028035D01*
X031839Y028035D01*
X031780Y028094D02*
X032134Y028449D01*
X032252Y028035D02*
X032370Y028035D01*
X032311Y028035D02*
X032311Y028508D01*
X032252Y028449D01*
X032488Y028035D02*
X032606Y028035D01*
X032547Y028035D02*
X032547Y028508D01*
X032488Y028449D01*
X028000Y027035D02*
X028000Y027508D01*
X028000Y027272D02*
X028059Y027331D01*
X028236Y027331D01*
X028295Y027272D01*
X028295Y027094D01*
X028236Y027035D01*
X028059Y027035D01*
X028000Y027094D01*
X028443Y026858D02*
X028650Y026858D01*
X028709Y026917D01*
X028709Y027331D01*
X028709Y027094D02*
X028650Y027035D01*
X028472Y027035D01*
X028413Y027094D01*
X028413Y027331D01*
X029299Y027508D02*
X029299Y027213D01*
X029476Y027035D01*
X029654Y027213D01*
X029654Y027508D01*
X029772Y027035D02*
X029772Y027272D01*
X029772Y027331D02*
X029772Y027360D01*
X029890Y027035D02*
X029890Y027331D01*
X029890Y027272D02*
X029949Y027331D01*
X030126Y027331D01*
X030185Y027272D01*
X030185Y027035D01*
X030598Y027094D02*
X030539Y027035D01*
X030362Y027035D01*
X030303Y027094D01*
X030303Y027272D01*
X030362Y027331D01*
X030539Y027331D01*
X030598Y027272D01*
X031012Y027094D02*
X030953Y027035D01*
X030776Y027035D01*
X030717Y027094D01*
X030717Y027272D01*
X030776Y027331D01*
X030953Y027331D01*
X031012Y027272D01*
X031012Y027183D01*
X030717Y027183D01*
X031130Y027035D02*
X031130Y027331D01*
X031130Y027272D02*
X031189Y027331D01*
X031366Y027331D01*
X031425Y027272D01*
X031425Y027035D01*
X031543Y027508D02*
X031543Y027094D01*
X031602Y027035D01*
X031720Y027035D01*
X031780Y027094D01*
X031543Y027331D02*
X031661Y027331D01*
X032370Y027035D02*
X032370Y027508D01*
X032724Y027508D01*
X032724Y027272D02*
X032370Y027272D01*
X032843Y027035D02*
X032843Y027272D01*
X032843Y027331D02*
X032843Y027360D01*
X033256Y027094D02*
X033197Y027035D01*
X033020Y027035D01*
X032961Y027094D01*
X032961Y027272D01*
X033020Y027331D01*
X033197Y027331D01*
X033256Y027272D01*
X033374Y027508D02*
X033374Y027035D01*
X033374Y027272D02*
X033433Y027331D01*
X033610Y027331D01*
X033669Y027272D01*
X033669Y027035D01*
X034083Y027094D02*
X034024Y027035D01*
X033846Y027035D01*
X033787Y027094D01*
X033787Y027272D01*
X033846Y027331D01*
X034024Y027331D01*
X034083Y027272D01*
X034083Y027183D01*
X033787Y027183D01*
X034201Y027508D02*
X034201Y027094D01*
X034260Y027035D01*
X034378Y027035D01*
X034437Y027094D01*
X034201Y027331D02*
X034319Y027331D01*
X036927Y028535D02*
X036927Y029008D01*
X036750Y029008D02*
X037104Y029008D01*
X037281Y028535D02*
X037222Y028594D01*
X037222Y028772D01*
X037281Y028831D01*
X037459Y028831D01*
X037518Y028772D01*
X037518Y028594D01*
X037459Y028535D01*
X037281Y028535D01*
X037695Y028535D02*
X037636Y028594D01*
X037636Y028772D01*
X037695Y028831D01*
X037872Y028831D01*
X037931Y028772D01*
X037931Y028594D01*
X037872Y028535D01*
X037695Y028535D01*
X038049Y028535D02*
X038167Y028535D01*
X038108Y028535D02*
X038108Y029008D01*
X038049Y029008D01*
X036545Y027285D02*
X036309Y027285D01*
X036250Y027344D01*
X036250Y027699D01*
X036309Y027758D01*
X036545Y027758D01*
X036604Y027699D01*
X036604Y027344D01*
X036545Y027285D01*
X036722Y027285D02*
X036722Y027581D01*
X036722Y027522D02*
X036781Y027581D01*
X036959Y027581D01*
X037018Y027522D01*
X037018Y027285D01*
X037136Y027285D02*
X037136Y027344D01*
X037490Y027699D01*
X037490Y027758D01*
X037904Y027285D02*
X037667Y027285D01*
X037608Y027344D01*
X037608Y027699D01*
X037667Y027758D01*
X037904Y027758D01*
X037963Y027699D01*
X037963Y027344D01*
X037904Y027285D01*
X038317Y027699D02*
X038258Y027758D01*
X038199Y027758D01*
X038140Y027699D01*
X038140Y027285D01*
X038081Y027285D01*
X038199Y027285D01*
X038081Y027581D02*
X038199Y027581D01*
X038671Y027699D02*
X038612Y027758D01*
X038553Y027758D01*
X038494Y027699D01*
X038494Y027285D01*
X038435Y027285D01*
X038553Y027285D01*
X038435Y027581D02*
X038553Y027581D01*
X034500Y021535D02*
X034500Y022008D01*
X034677Y021831D01*
X034854Y022008D01*
X034854Y021535D01*
X035031Y021535D02*
X034972Y021594D01*
X034972Y021772D01*
X035031Y021831D01*
X035209Y021831D01*
X035268Y021772D01*
X035268Y021594D01*
X035209Y021535D01*
X035031Y021535D01*
X035386Y022008D02*
X035386Y021594D01*
X035445Y021535D01*
X035563Y021535D01*
X035622Y021594D01*
X035386Y021831D02*
X035504Y021831D01*
X035799Y021535D02*
X035740Y021594D01*
X035740Y021772D01*
X035799Y021831D01*
X035976Y021831D01*
X036035Y021772D01*
X036035Y021594D01*
X035976Y021535D01*
X035799Y021535D01*
X036154Y021535D02*
X036154Y021831D01*
X036154Y021772D02*
X036213Y021831D01*
X036272Y021831D01*
X036331Y021772D01*
X039000Y022008D02*
X039000Y021535D01*
X039354Y021535D01*
X039531Y021831D02*
X039709Y021831D01*
X039768Y021772D01*
X039768Y021535D01*
X039768Y021594D02*
X039709Y021535D01*
X039531Y021535D01*
X039472Y021594D01*
X039472Y021654D01*
X039531Y021713D01*
X039709Y021713D01*
X039768Y021654D01*
X039886Y021594D02*
X039945Y021535D01*
X040122Y021535D01*
X040181Y021594D01*
X040181Y021624D01*
X040122Y021683D01*
X039945Y021683D01*
X039886Y021742D01*
X039886Y021772D01*
X039945Y021831D01*
X040122Y021831D01*
X040181Y021772D01*
X040594Y021594D02*
X040535Y021535D01*
X040358Y021535D01*
X040299Y021594D01*
X040299Y021772D01*
X040358Y021831D01*
X040535Y021831D01*
X040594Y021772D01*
X040594Y021683D01*
X040299Y021683D01*
X040713Y021535D02*
X040713Y021831D01*
X040713Y021772D02*
X040772Y021831D01*
X040831Y021831D01*
X040890Y021772D01*
X010000Y031508D02*
X009528Y031508D01*
X009528Y031154D01*
X009823Y030976D02*
X009823Y030799D01*
X009764Y030740D01*
X009528Y030740D01*
X009587Y030740D02*
X009528Y030799D01*
X009528Y030976D01*
X009587Y031035D01*
X009646Y031035D01*
X009705Y030976D01*
X009705Y030799D01*
X009646Y030740D01*
X009587Y030622D02*
X009528Y030563D01*
X009528Y030386D01*
X009587Y030327D01*
X009616Y030327D01*
X009675Y030386D01*
X009675Y030563D01*
X009734Y030622D01*
X009764Y030622D01*
X009823Y030563D01*
X009823Y030386D01*
X009764Y030327D01*
X009587Y029913D02*
X009528Y029972D01*
X009528Y030150D01*
X009587Y030209D01*
X009764Y030209D01*
X009823Y030150D01*
X009823Y029972D01*
X009764Y029913D01*
X009675Y029913D01*
X009675Y030209D01*
X009528Y029795D02*
X009823Y029795D01*
X009764Y029795D02*
X009823Y029736D01*
X009823Y029677D01*
X009764Y029618D01*
X009528Y029028D02*
X009764Y029028D01*
X009823Y029028D02*
X009852Y029028D01*
X009528Y028909D02*
X009823Y028909D01*
X009764Y028909D02*
X009823Y028850D01*
X009823Y028673D01*
X009764Y028614D01*
X009528Y028614D01*
X010000Y025758D02*
X009528Y025758D01*
X009528Y025404D01*
X009823Y025226D02*
X009823Y025049D01*
X009764Y024990D01*
X009528Y024990D01*
X009587Y024990D02*
X009528Y025049D01*
X009528Y025226D01*
X009587Y025285D01*
X009646Y025285D01*
X009705Y025226D01*
X009705Y025049D01*
X009646Y024990D01*
X009587Y024872D02*
X009528Y024813D01*
X009528Y024636D01*
X009587Y024577D01*
X009616Y024577D01*
X009675Y024636D01*
X009675Y024813D01*
X009734Y024872D01*
X009764Y024872D01*
X009823Y024813D01*
X009823Y024636D01*
X009764Y024577D01*
X009587Y024163D02*
X009528Y024222D01*
X009528Y024400D01*
X009587Y024459D01*
X009764Y024459D01*
X009823Y024400D01*
X009823Y024222D01*
X009764Y024163D01*
X009675Y024163D01*
X009675Y024459D01*
X009528Y024045D02*
X009823Y024045D01*
X009764Y024045D02*
X009823Y023986D01*
X009823Y023927D01*
X009764Y023868D01*
X009528Y023219D02*
X009587Y023278D01*
X009764Y023278D01*
X009823Y023219D01*
X009823Y023041D01*
X009764Y022982D01*
X009587Y022982D01*
X009528Y023041D01*
X009528Y023219D01*
X009823Y022864D02*
X009587Y022864D01*
X009528Y022805D01*
X009528Y022628D01*
X009587Y022569D01*
X009823Y022569D02*
X009528Y022569D01*
X010000Y022451D02*
X009587Y022451D01*
X009528Y022392D01*
X009528Y022274D01*
X009587Y022215D01*
X009823Y022451D02*
X009823Y022333D01*
X010028Y018581D02*
X010500Y018581D01*
X010500Y018758D02*
X010500Y018404D01*
X010028Y018226D02*
X010087Y018285D01*
X010264Y018285D01*
X010323Y018226D01*
X010323Y018049D01*
X010264Y017990D01*
X010087Y017990D01*
X010028Y018049D01*
X010028Y018226D01*
X010028Y017813D02*
X010087Y017872D01*
X010264Y017872D01*
X010323Y017813D01*
X010323Y017636D01*
X010264Y017577D01*
X010087Y017577D01*
X010028Y017636D01*
X010028Y017813D01*
X010028Y017459D02*
X010028Y017341D01*
X010028Y017400D02*
X010500Y017400D01*
X010500Y017459D01*
X010028Y016691D02*
X010264Y016691D01*
X010323Y016691D02*
X010352Y016691D01*
X010028Y016573D02*
X010323Y016573D01*
X010264Y016573D02*
X010323Y016514D01*
X010323Y016337D01*
X010264Y016278D01*
X010028Y016278D01*
X010028Y013831D02*
X010500Y013831D01*
X010500Y014008D02*
X010500Y013654D01*
X010028Y013476D02*
X010087Y013535D01*
X010264Y013535D01*
X010323Y013476D01*
X010323Y013299D01*
X010264Y013240D01*
X010087Y013240D01*
X010028Y013299D01*
X010028Y013476D01*
X010028Y013063D02*
X010087Y013122D01*
X010264Y013122D01*
X010323Y013063D01*
X010323Y012886D01*
X010264Y012827D01*
X010087Y012827D01*
X010028Y012886D01*
X010028Y013063D01*
X010028Y012709D02*
X010028Y012591D01*
X010028Y012650D02*
X010500Y012650D01*
X010500Y012709D01*
X010028Y011882D02*
X010087Y011941D01*
X010264Y011941D01*
X010323Y011882D01*
X010323Y011705D01*
X010264Y011646D01*
X010087Y011646D01*
X010028Y011705D01*
X010028Y011882D01*
X010323Y011528D02*
X010087Y011528D01*
X010028Y011469D01*
X010028Y011291D01*
X010087Y011232D01*
X010323Y011232D02*
X010028Y011232D01*
X010500Y011114D02*
X010087Y011114D01*
X010028Y011055D01*
X010028Y010937D01*
X010087Y010878D01*
X010323Y011114D02*
X010323Y010996D01*
X006254Y028811D02*
X006254Y028713D01*
X006156Y028713D01*
X006106Y028762D01*
X006106Y028959D01*
X006156Y029008D01*
X006451Y029008D01*
X006500Y028959D01*
X006500Y028762D01*
X006451Y028713D01*
X006106Y028614D02*
X006500Y028614D01*
X006451Y028614D02*
X006156Y028319D01*
X006106Y028319D02*
X006500Y028319D01*
X006106Y028221D02*
X006500Y028221D01*
X006500Y027975D01*
X006451Y027925D01*
X006156Y027925D01*
X006106Y027975D01*
X006106Y028221D01*
X006106Y030508D02*
X006500Y030508D01*
X006500Y030262D01*
X006451Y030213D01*
X006352Y030213D01*
X006303Y030262D01*
X006303Y030508D01*
X006500Y030114D02*
X006156Y030114D01*
X006106Y030065D01*
X006205Y029967D01*
X006402Y029967D01*
X006205Y029967D02*
X006106Y029868D01*
X006156Y029819D01*
X006500Y029819D01*
X006106Y029721D02*
X006500Y029721D01*
X006352Y029573D01*
X006500Y029425D01*
X006106Y029425D01*
X006106Y031758D02*
X006106Y031659D01*
X006106Y031709D02*
X006500Y031709D01*
X006451Y031758D01*
X006106Y031266D02*
X006106Y031561D01*
X006205Y031561D01*
X006303Y031463D01*
X006303Y031315D01*
X006352Y031266D01*
X006451Y031266D01*
X006500Y031315D01*
X006500Y031512D01*
X006451Y031561D01*
X006500Y031167D02*
X006254Y031167D01*
X006106Y031020D01*
X006254Y030872D01*
X006500Y030872D01*
X026750Y012864D02*
X026750Y013258D01*
X026898Y013110D01*
X027045Y013258D01*
X027045Y012864D01*
X026750Y010864D02*
X026750Y011110D01*
X026898Y011258D01*
X027045Y011110D01*
X027045Y010864D01*
X026750Y011012D02*
X027045Y011012D01*
X025500Y009864D02*
X025500Y010258D01*
X025648Y010110D01*
X025795Y010258D01*
X025795Y009864D01*
X025943Y009864D02*
X025894Y009913D01*
X025894Y010061D01*
X025943Y010110D01*
X026090Y010110D01*
X026140Y010061D01*
X026140Y009913D01*
X026090Y009864D01*
X025943Y009864D01*
X026238Y010258D02*
X026238Y009913D01*
X026287Y009864D01*
X026386Y009864D01*
X026435Y009913D01*
X026238Y010110D02*
X026336Y010110D01*
X026583Y009864D02*
X026533Y009913D01*
X026533Y010061D01*
X026583Y010110D01*
X026730Y010110D01*
X026779Y010061D01*
X026779Y009913D01*
X026730Y009864D01*
X026583Y009864D01*
X026878Y009864D02*
X026878Y010110D01*
X026878Y010061D02*
X026927Y010110D01*
X026976Y010110D01*
X027025Y010061D01*
X025500Y009364D02*
X025500Y009758D01*
X025648Y009610D01*
X025795Y009758D01*
X025795Y009364D01*
X025943Y009364D02*
X025894Y009413D01*
X025894Y009561D01*
X025943Y009610D01*
X026090Y009610D01*
X026140Y009561D01*
X026140Y009413D01*
X026090Y009364D01*
X025943Y009364D01*
X026484Y009758D02*
X026484Y009364D01*
X026484Y009413D02*
X026435Y009364D01*
X026287Y009364D01*
X026238Y009413D01*
X026238Y009561D01*
X026287Y009610D01*
X026435Y009610D01*
X026484Y009561D01*
X026829Y009413D02*
X026779Y009364D01*
X026632Y009364D01*
X026583Y009413D01*
X026583Y009561D01*
X026632Y009610D01*
X026779Y009610D01*
X026829Y009561D01*
X026829Y009487D01*
X026583Y009487D01*
X011545Y029663D02*
X011496Y029614D01*
X011299Y029614D01*
X011250Y029663D01*
X011250Y029959D01*
X011299Y030008D01*
X011496Y030008D01*
X011545Y029959D01*
X011644Y029614D02*
X011742Y029614D01*
X011693Y029614D02*
X011693Y030008D01*
X011644Y029959D01*
X017545Y029913D02*
X017496Y029864D01*
X017299Y029864D01*
X017250Y029913D01*
X017250Y030209D01*
X017299Y030258D01*
X017496Y030258D01*
X017545Y030209D01*
X017939Y029864D02*
X017644Y029864D01*
X017644Y029963D01*
X017742Y030061D01*
X017890Y030061D01*
X017939Y030110D01*
X017939Y030209D01*
X017890Y030258D01*
X017693Y030258D01*
X017644Y030209D01*
X035545Y011913D02*
X035496Y011864D01*
X035299Y011864D01*
X035250Y011913D01*
X035250Y012209D01*
X035299Y012258D01*
X035496Y012258D01*
X035545Y012209D01*
X035644Y012209D02*
X035693Y012258D01*
X035890Y012258D01*
X035939Y012209D01*
X035939Y012110D01*
X035890Y012061D01*
X035742Y012061D01*
X035890Y012061D02*
X035939Y012012D01*
X035939Y011913D01*
X035890Y011864D01*
X035693Y011864D01*
X035644Y011913D01*
X014045Y008913D02*
X013996Y008864D01*
X013799Y008864D01*
X013750Y008913D01*
X013750Y009209D01*
X013799Y009258D01*
X013996Y009258D01*
X014045Y009209D01*
X014390Y008864D02*
X014390Y009258D01*
X014291Y009258D01*
X014144Y009110D01*
X014144Y009012D01*
X014439Y009012D01*
X022750Y021614D02*
X022750Y022008D01*
X022996Y022008D01*
X023045Y021959D01*
X023045Y021663D01*
X022996Y021614D01*
X022750Y021614D01*
X023144Y021614D02*
X023242Y021614D01*
X023193Y021614D02*
X023193Y022008D01*
X023144Y021959D01*
X039750Y024364D02*
X039750Y024758D01*
X039996Y024758D01*
X040045Y024709D01*
X040045Y024413D01*
X039996Y024364D01*
X039750Y024364D01*
X040439Y024364D02*
X040144Y024364D01*
X040144Y024463D01*
X040242Y024561D01*
X040390Y024561D01*
X040439Y024610D01*
X040439Y024709D01*
X040390Y024758D01*
X040193Y024758D01*
X040144Y024709D01*
X035000Y024364D02*
X035000Y024758D01*
X035246Y024758D01*
X035295Y024709D01*
X035295Y024413D01*
X035246Y024364D01*
X035000Y024364D01*
X035394Y024709D02*
X035443Y024758D01*
X035640Y024758D01*
X035689Y024709D01*
X035689Y024610D01*
X035640Y024561D01*
X035492Y024561D01*
X035640Y024561D02*
X035689Y024512D01*
X035689Y024413D01*
X035640Y024364D01*
X035443Y024364D01*
X035394Y024413D01*
X022750Y012864D02*
X022750Y013258D01*
X022996Y013258D01*
X023045Y013209D01*
X023045Y012913D01*
X022996Y012864D01*
X022750Y012864D01*
X023390Y012864D02*
X023390Y013258D01*
X023291Y013258D01*
X023144Y013110D01*
X023144Y013012D01*
X023439Y013012D01*
X039500Y029364D02*
X039500Y029758D01*
X039746Y029758D01*
X039795Y029709D01*
X039795Y029413D01*
X039746Y029364D01*
X039500Y029364D01*
X040189Y029758D02*
X039894Y029758D01*
X039894Y029561D01*
X040140Y029561D01*
X040189Y029512D01*
X040189Y029413D01*
X040140Y029364D01*
X039943Y029364D01*
X039894Y029413D01*
X010750Y010614D02*
X010750Y011008D01*
X010996Y011008D01*
X011045Y010959D01*
X011045Y010663D01*
X010996Y010614D01*
X010750Y010614D01*
X011390Y011008D02*
X011242Y011008D01*
X011144Y010909D01*
X011144Y010663D01*
X011193Y010614D01*
X011390Y010614D01*
X011439Y010663D01*
X011439Y010762D01*
X011390Y010811D01*
X011144Y010811D01*
X007500Y027463D02*
X007500Y027413D01*
X007549Y027364D01*
X007746Y027364D01*
X007795Y027413D01*
X007795Y027758D01*
X007697Y027758D01*
X007894Y027364D02*
X007992Y027364D01*
X007943Y027364D02*
X007943Y027758D01*
X007894Y027709D01*
X007500Y021213D02*
X007500Y021163D01*
X007549Y021114D01*
X007746Y021114D01*
X007795Y021163D01*
X007795Y021508D01*
X007697Y021508D01*
X008189Y021114D02*
X007894Y021114D01*
X007894Y021213D01*
X007992Y021311D01*
X008140Y021311D01*
X008189Y021360D01*
X008189Y021459D01*
X008140Y021508D01*
X007943Y021508D01*
X007894Y021459D01*
X007750Y014963D02*
X007750Y014913D01*
X007799Y014864D01*
X007996Y014864D01*
X008045Y014913D01*
X008045Y015258D01*
X007947Y015258D01*
X008144Y015209D02*
X008193Y015258D01*
X008390Y015258D01*
X008439Y015209D01*
X008439Y015110D01*
X008390Y015061D01*
X008242Y015061D01*
X008390Y015061D02*
X008439Y015012D01*
X008439Y014913D01*
X008390Y014864D01*
X008193Y014864D01*
X008144Y014913D01*
X007750Y009963D02*
X007750Y009913D01*
X007799Y009864D01*
X007996Y009864D01*
X008045Y009913D01*
X008045Y010258D01*
X007947Y010258D01*
X008390Y009864D02*
X008390Y010258D01*
X008291Y010258D01*
X008144Y010110D01*
X008144Y010012D01*
X008439Y010012D01*
X026250Y013963D02*
X026250Y013913D01*
X026299Y013864D01*
X026496Y013864D01*
X026545Y013913D01*
X026545Y014258D01*
X026447Y014258D01*
X026939Y014258D02*
X026644Y014258D01*
X026644Y014061D01*
X026890Y014061D01*
X026939Y014012D01*
X026939Y013913D01*
X026890Y013864D01*
X026693Y013864D01*
X026644Y013913D01*
X017250Y027258D02*
X017250Y026864D01*
X017545Y026864D01*
X017644Y026913D02*
X017693Y026864D01*
X017890Y026864D01*
X017939Y026913D01*
X017939Y027012D01*
X017890Y027061D01*
X017693Y027061D01*
X017644Y027110D01*
X017644Y027209D01*
X017693Y027258D01*
X017890Y027258D01*
X017939Y027209D01*
X018037Y026864D02*
X018136Y026864D01*
X018086Y026864D02*
X018086Y027258D01*
X018037Y027209D01*
X017250Y018258D02*
X017250Y017864D01*
X017545Y017864D01*
X017644Y017913D02*
X017693Y017864D01*
X017890Y017864D01*
X017939Y017913D01*
X017939Y018012D01*
X017890Y018061D01*
X017693Y018061D01*
X017644Y018110D01*
X017644Y018209D01*
X017693Y018258D01*
X017890Y018258D01*
X017939Y018209D01*
X018333Y017864D02*
X018037Y017864D01*
X018037Y017963D01*
X018136Y018061D01*
X018283Y018061D01*
X018333Y018110D01*
X018333Y018209D01*
X018283Y018258D01*
X018086Y018258D01*
X018037Y018209D01*
X025246Y026114D02*
X025049Y026114D01*
X025000Y026163D01*
X025000Y026459D01*
X025049Y026508D01*
X025246Y026508D01*
X025295Y026459D01*
X025295Y026163D01*
X025246Y026114D01*
X025197Y026213D02*
X025295Y026114D01*
X025394Y026114D02*
X025492Y026114D01*
X025443Y026114D02*
X025443Y026508D01*
X025394Y026459D01*
X025496Y016364D02*
X025299Y016364D01*
X025250Y016413D01*
X025250Y016709D01*
X025299Y016758D01*
X025496Y016758D01*
X025545Y016709D01*
X025545Y016413D01*
X025496Y016364D01*
X025447Y016463D02*
X025545Y016364D01*
X025939Y016364D02*
X025644Y016364D01*
X025644Y016463D01*
X025742Y016561D01*
X025890Y016561D01*
X025939Y016610D01*
X025939Y016709D01*
X025890Y016758D01*
X025693Y016758D01*
X025644Y016709D01*
X021746Y008364D02*
X021549Y008364D01*
X021500Y008413D01*
X021500Y008709D01*
X021549Y008758D01*
X021746Y008758D01*
X021795Y008709D01*
X021795Y008413D01*
X021746Y008364D01*
X021697Y008463D02*
X021795Y008364D01*
X021894Y008709D02*
X021943Y008758D01*
X022140Y008758D01*
X022189Y008709D01*
X022189Y008610D01*
X022140Y008561D01*
X021992Y008561D01*
X022140Y008561D02*
X022189Y008512D01*
X022189Y008413D01*
X022140Y008364D01*
X021943Y008364D01*
X021894Y008413D01*
X018746Y008364D02*
X018549Y008364D01*
X018500Y008413D01*
X018500Y008709D01*
X018549Y008758D01*
X018746Y008758D01*
X018795Y008709D01*
X018795Y008413D01*
X018746Y008364D01*
X018697Y008463D02*
X018795Y008364D01*
X019140Y008364D02*
X019140Y008758D01*
X019041Y008758D01*
X018894Y008610D01*
X018894Y008512D01*
X019189Y008512D01*
X040250Y010864D02*
X040250Y011258D01*
X040496Y011258D01*
X040545Y011209D01*
X040545Y011110D01*
X040496Y011061D01*
X040250Y011061D01*
X040348Y011061D02*
X040545Y010864D01*
X040644Y010864D02*
X040742Y010864D01*
X040693Y010864D02*
X040693Y011258D01*
X040644Y011209D01*
X024000Y029864D02*
X024000Y030258D01*
X024246Y030258D01*
X024295Y030209D01*
X024295Y030110D01*
X024246Y030061D01*
X024000Y030061D01*
X024098Y030061D02*
X024295Y029864D01*
X024689Y029864D02*
X024394Y029864D01*
X024394Y029963D01*
X024492Y030061D01*
X024640Y030061D01*
X024689Y030110D01*
X024689Y030209D01*
X024640Y030258D01*
X024443Y030258D01*
X024394Y030209D01*
X035250Y026114D02*
X035250Y026508D01*
X035496Y026508D01*
X035545Y026459D01*
X035545Y026360D01*
X035496Y026311D01*
X035250Y026311D01*
X035348Y026311D02*
X035545Y026114D01*
X035644Y026459D02*
X035693Y026508D01*
X035890Y026508D01*
X035939Y026459D01*
X035939Y026360D01*
X035890Y026311D01*
X035742Y026311D01*
X035890Y026311D02*
X035939Y026262D01*
X035939Y026163D01*
X035890Y026114D01*
X035693Y026114D01*
X035644Y026163D01*
X034750Y010864D02*
X034750Y011258D01*
X034996Y011258D01*
X035045Y011209D01*
X035045Y011110D01*
X034996Y011061D01*
X034750Y011061D01*
X034848Y011061D02*
X035045Y010864D01*
X035390Y010864D02*
X035390Y011258D01*
X035291Y011258D01*
X035144Y011110D01*
X035144Y011012D01*
X035439Y011012D01*
X029500Y024614D02*
X029500Y025008D01*
X029746Y025008D01*
X029795Y024959D01*
X029795Y024860D01*
X029746Y024811D01*
X029500Y024811D01*
X029598Y024811D02*
X029795Y024614D01*
X030189Y025008D02*
X029894Y025008D01*
X029894Y024811D01*
X030140Y024811D01*
X030189Y024762D01*
X030189Y024663D01*
X030140Y024614D01*
X029943Y024614D01*
X029894Y024663D01*
X035000Y020614D02*
X035000Y021008D01*
X035246Y021008D01*
X035295Y020959D01*
X035295Y020860D01*
X035246Y020811D01*
X035000Y020811D01*
X035098Y020811D02*
X035295Y020614D01*
X035640Y021008D02*
X035492Y021008D01*
X035394Y020909D01*
X035394Y020663D01*
X035443Y020614D01*
X035640Y020614D01*
X035689Y020663D01*
X035689Y020762D01*
X035640Y020811D01*
X035394Y020811D01*
X025750Y018114D02*
X025750Y018508D01*
X025996Y018508D01*
X026045Y018459D01*
X026045Y018360D01*
X025996Y018311D01*
X025750Y018311D01*
X025848Y018311D02*
X026045Y018114D01*
X026144Y018459D02*
X026144Y018508D01*
X026439Y018508D01*
X026439Y018409D01*
X026242Y018213D01*
X026242Y018114D01*
X023250Y010614D02*
X023250Y011008D01*
X023496Y011008D01*
X023545Y010959D01*
X023545Y010860D01*
X023496Y010811D01*
X023250Y010811D01*
X023348Y010811D02*
X023545Y010614D01*
X023693Y010811D02*
X023644Y010762D01*
X023644Y010663D01*
X023693Y010614D01*
X023890Y010614D01*
X023939Y010663D01*
X023939Y010762D01*
X023890Y010811D01*
X023693Y010811D01*
X023644Y010860D01*
X023644Y010959D01*
X023693Y011008D01*
X023890Y011008D01*
X023939Y010959D01*
X023939Y010860D01*
X023890Y010811D01*
X035500Y029864D02*
X035500Y030258D01*
X035746Y030258D01*
X035795Y030209D01*
X035795Y030110D01*
X035746Y030061D01*
X035500Y030061D01*
X035598Y030061D02*
X035795Y029864D01*
X035943Y029864D02*
X036090Y029864D01*
X036189Y029963D01*
X036189Y030209D01*
X036140Y030258D01*
X035943Y030258D01*
X035894Y030209D01*
X035894Y030110D01*
X035943Y030061D01*
X036189Y030061D01*
X008500Y008614D02*
X008500Y009008D01*
X008746Y009008D01*
X008795Y008959D01*
X008795Y008860D01*
X008746Y008811D01*
X008500Y008811D01*
X008598Y008811D02*
X008795Y008614D01*
X008894Y008614D02*
X008992Y008614D01*
X008943Y008614D02*
X008943Y009008D01*
X008894Y008959D01*
X009140Y008614D02*
X009090Y008663D01*
X009090Y008959D01*
X009140Y009008D01*
X009336Y009008D01*
X009386Y008959D01*
X009386Y008663D01*
X009336Y008614D01*
X009140Y008614D01*
X009090Y008663D02*
X009386Y008959D01*
X017250Y009114D02*
X017250Y009508D01*
X017496Y009508D01*
X017545Y009459D01*
X017545Y009360D01*
X017496Y009311D01*
X017250Y009311D01*
X017348Y009311D02*
X017545Y009114D01*
X017644Y009114D02*
X017742Y009114D01*
X017693Y009114D02*
X017693Y009508D01*
X017644Y009459D01*
X017840Y009114D02*
X017939Y009114D01*
X017890Y009114D02*
X017890Y009508D01*
X017840Y009459D01*
X-005500Y034114D02*
X-005500Y034508D01*
X-005254Y034508D01*
X-005205Y034459D01*
X-005205Y034360D01*
X-005254Y034311D01*
X-005500Y034311D01*
X-005402Y034311D02*
X-005205Y034114D01*
X-005106Y034114D02*
X-005106Y034508D01*
X-004860Y034508D01*
X-004811Y034459D01*
X-004811Y034360D01*
X-004860Y034311D01*
X-005106Y034311D01*
X-004713Y034114D02*
X-004614Y034114D01*
X-004664Y034114D02*
X-004664Y034508D01*
X-004713Y034459D01*
X-004000Y029364D02*
X-004000Y029758D01*
X-003754Y029758D01*
X-003705Y029709D01*
X-003705Y029610D01*
X-003754Y029561D01*
X-004000Y029561D01*
X-003902Y029561D02*
X-003705Y029364D01*
X-003606Y029364D02*
X-003606Y029758D01*
X-003360Y029758D01*
X-003311Y029709D01*
X-003311Y029610D01*
X-003360Y029561D01*
X-003606Y029561D01*
X-002917Y029364D02*
X-003213Y029364D01*
X-003213Y029463D01*
X-003114Y029561D01*
X-002967Y029561D01*
X-002917Y029610D01*
X-002917Y029709D01*
X-002967Y029758D01*
X-003164Y029758D01*
X-003213Y029709D01*
X-005500Y023614D02*
X-005500Y024008D01*
X-005254Y024008D01*
X-005205Y023959D01*
X-005205Y023860D01*
X-005254Y023811D01*
X-005500Y023811D01*
X-005402Y023811D02*
X-005205Y023614D01*
X-005106Y023614D02*
X-005106Y024008D01*
X-004860Y024008D01*
X-004811Y023959D01*
X-004811Y023860D01*
X-004860Y023811D01*
X-005106Y023811D01*
X-004713Y023959D02*
X-004664Y024008D01*
X-004467Y024008D01*
X-004417Y023959D01*
X-004417Y023860D01*
X-004467Y023811D01*
X-004614Y023811D01*
X-004467Y023811D02*
X-004417Y023762D01*
X-004417Y023663D01*
X-004467Y023614D01*
X-004664Y023614D01*
X-004713Y023663D01*
X-007000Y034614D02*
X-007000Y035008D01*
X-006754Y035008D01*
X-006705Y034959D01*
X-006705Y034860D01*
X-006754Y034811D01*
X-007000Y034811D01*
X-006902Y034811D02*
X-006705Y034614D01*
X-006606Y034614D02*
X-006606Y035008D01*
X-006360Y035008D01*
X-006311Y034959D01*
X-006311Y034860D01*
X-006360Y034811D01*
X-006606Y034811D01*
X-005967Y034614D02*
X-005967Y035008D01*
X-006065Y035008D01*
X-006213Y034860D01*
X-006213Y034762D01*
X-005917Y034762D01*
X039500Y013913D02*
X039549Y013864D01*
X039746Y013864D01*
X039795Y013913D01*
X039795Y014012D01*
X039746Y014061D01*
X039549Y014061D01*
X039500Y014110D01*
X039500Y014209D01*
X039549Y014258D01*
X039746Y014258D01*
X039795Y014209D01*
X039894Y014258D02*
X039894Y013913D01*
X039943Y013864D01*
X040041Y013963D01*
X040041Y014159D01*
X040041Y013963D02*
X040140Y013864D01*
X040189Y013913D01*
X040189Y014258D01*
X040287Y013864D02*
X040386Y013864D01*
X040336Y013864D02*
X040336Y014258D01*
X040287Y014209D01*
X035000Y013913D02*
X035049Y013864D01*
X035246Y013864D01*
X035295Y013913D01*
X035295Y014012D01*
X035246Y014061D01*
X035049Y014061D01*
X035000Y014110D01*
X035000Y014209D01*
X035049Y014258D01*
X035246Y014258D01*
X035295Y014209D01*
X035394Y014258D02*
X035394Y013913D01*
X035443Y013864D01*
X035541Y013963D01*
X035541Y014159D01*
X035541Y013963D02*
X035640Y013864D01*
X035689Y013913D01*
X035689Y014258D01*
X036083Y013864D02*
X035787Y013864D01*
X035787Y013963D01*
X035886Y014061D01*
X036033Y014061D01*
X036083Y014110D01*
X036083Y014209D01*
X036033Y014258D01*
X035836Y014258D01*
X035787Y014209D01*
X030250Y013508D02*
X030250Y013163D01*
X030299Y013114D01*
X030496Y013114D01*
X030545Y013163D01*
X030545Y013508D02*
X030545Y013114D01*
X030644Y013114D02*
X030742Y013114D01*
X030693Y013114D02*
X030693Y013508D01*
X030644Y013459D01*
G54D12*
X001500Y035508D02*
X003500Y035508D01*
X002500Y034508D02*
X002500Y036508D01*
X045500Y035508D02*
X047500Y035508D01*
X046500Y034508D02*
X046500Y036508D01*
X045500Y002508D02*
X047500Y002508D01*
X046500Y001508D02*
X046500Y003508D01*
X001500Y002508D02*
X003500Y002508D01*
X002500Y001508D02*
X002500Y003508D01*
M02*
